#N canvas 340 501 465 283 10;
#X text 60 13 ---impulse~---;
#X text 61 35 non-bandlimited single-sample impulses;
#X text 292 163 sIgpAck 0.04;
#X text 309 12 arg<freq>;
#X floatatom 62 83 5 0 0 2 freq - -, f 5;
#X text 220 176 2007 www.weiss-archiv.de;
#X obj 62 132 *~ 0.2;
#X obj 63 157 dac~;
#X msg 183 123 \; pd dsp 1;
#X msg 152 69 0;
#X msg 150 185 bang;
#X obj 144 220 print~;
#X obj 62 105 impulse~ 1;
#X connect 4 0 12 0;
#X connect 6 0 7 0;
#X connect 6 0 7 1;
#X connect 9 0 10 0;
#X connect 9 0 12 1;
#X connect 10 0 11 0;
#X connect 12 0 6 0;
#X connect 12 0 11 0;
